<?xml version="1.0" standalone="no"?>
<!DOCTYPE svg PUBLIC "-//W3C//DTD SVG 20010904//EN"
 "http://www.w3.org/TR/2001/REC-SVG-20010904/DTD/svg10.dtd">
<svg version="1.0" xmlns="http://www.w3.org/2000/svg"
 width="512.000000pt" height="512.000000pt" viewBox="0 0 512.000000 512.000000"
 preserveAspectRatio="xMidYMid meet">
<metadata>
Created by potrace 1.16, written by Peter Selinger 2001-2019
</metadata>
<g transform="translate(0.000000,512.000000) scale(0.100000,-0.100000)"
fill="#000000" stroke="none">
<path d="M2570 4254 c-281 -41 -556 -149 -811 -320 -147 -98 -242 -179 -381
-323 -301 -311 -524 -717 -621 -1126 -54 -225 -71 -357 -71 -555 -1 -191 9
-267 54 -417 13 -43 17 -78 13 -112 -8 -68 22 -127 108 -214 80 -80 160 -121
269 -138 41 -6 80 -13 86 -14 6 -2 15 -28 18 -59 4 -30 17 -70 29 -87 82 -122
246 -93 656 113 203 103 216 108 247 98 71 -24 81 -77 32 -183 l-32 -69 28
-24 c18 -16 39 -24 66 -24 69 0 84 12 135 107 186 343 352 645 376 684 l29 46
55 -5 c79 -6 115 3 175 48 46 34 61 40 104 40 156 0 292 54 375 147 46 51 91
140 91 178 0 16 5 17 203 39 245 28 400 96 542 240 141 142 194 263 202 456 6
140 -13 254 -63 385 -166 430 -568 814 -1034 988 -278 104 -604 141 -880 101z
m515 -88 c275 -47 523 -150 755 -314 134 -95 319 -282 407 -412 158 -235 223
-414 223 -619 0 -183 -49 -301 -180 -431 -135 -136 -274 -195 -515 -219 -130
-13 -175 -14 -175 -2 0 4 35 16 78 26 242 54 412 99 452 118 42 19 43 21 19
24 -22 3 -563 -83 -579 -92 -3 -1 -15 12 -26 30 l-21 32 68 7 c89 8 157 34
216 83 72 58 86 66 238 118 231 79 304 129 339 233 55 160 -34 450 -157 517
-34 18 -35 21 -39 84 -4 81 -31 125 -93 152 -34 15 -44 26 -54 59 -26 88 -125
161 -219 161 -57 1 -88 -10 -130 -46 l-31 -26 -67 20 c-116 36 -197 21 -260
-51 -31 -35 -44 -75 -63 -186 -14 -86 -40 -125 -106 -157 -30 -15 -59 -24 -64
-20 -6 3 -16 27 -23 53 l-12 47 -7 -53 c-8 -65 -26 -92 -85 -133 -57 -39 -115
-47 -180 -25 -100 34 -154 13 -154 -59 l0 -30 13 25 c15 31 59 38 94 15 l25
-17 -25 -26 c-60 -62 -80 -188 -57 -363 9 -77 10 -106 0 -128 -21 -52 -108
-70 -133 -28 -8 12 -22 73 -32 135 -14 94 -16 145 -10 305 6 145 11 197 23
215 29 44 11 46 -235 28 -306 -22 -332 -21 -374 7 -68 46 -76 162 -15 223 32
32 60 41 191 61 l50 8 6 75 c10 120 20 177 33 196 12 16 16 16 59 -6 l45 -23
-5 -91 c-5 -86 -1 -115 33 -232 7 -25 -9 -28 -178 -40 -107 -7 -141 -21 -119
-48 17 -20 83 -20 323 -1 198 15 259 11 376 -29 l74 -25 23 23 c23 23 23 25 9
71 -27 91 -12 192 31 209 31 11 72 6 88 -12 9 -10 21 -41 27 -70 26 -118 139
-138 198 -34 30 54 28 106 -8 195 -34 84 -40 169 -16 216 9 16 39 40 74 59 33
18 65 39 72 47 11 13 6 15 -36 15 -27 -1 -67 -7 -89 -15 -35 -13 -41 -12 -57
2 -24 21 -23 28 7 41 38 18 32 42 -10 42 -38 0 -95 -34 -95 -57 0 -7 17 -32
39 -56 34 -37 37 -45 29 -67 -6 -14 -11 -59 -12 -100 -1 -69 3 -84 37 -158 29
-61 37 -89 32 -110 -8 -40 -57 -85 -86 -80 -22 3 -24 9 -29 70 -4 60 -9 71
-38 100 -29 30 -38 33 -92 33 -51 0 -63 -4 -89 -29 -40 -39 -45 -66 -25 -158
9 -43 14 -81 11 -85 -7 -7 -165 36 -172 47 -12 20 -47 232 -41 254 3 14 38 62
76 107 58 67 70 87 70 116 0 49 -14 69 -73 107 -65 42 -137 110 -137 130 0 43
356 57 565 22z m-638 -43 c15 -41 67 -106 106 -130 67 -43 97 -74 97 -102 0
-17 -20 -50 -60 -95 -81 -94 -87 -120 -60 -254 11 -57 19 -106 18 -108 -2 -1
-37 -4 -78 -6 l-74 -3 -15 40 c-8 22 -16 85 -19 141 -5 117 8 153 78 217 l41
39 -53 56 c-30 32 -61 68 -70 81 -15 21 -20 22 -49 12 -17 -6 -45 -11 -61 -11
l-29 0 17 -29 c12 -21 30 -33 60 -40 53 -13 90 -55 72 -80 -40 -53 -35 -52
-100 -13 -33 19 -74 54 -91 77 -19 24 -38 40 -47 38 -43 -12 -44 -13 -22 -29
32 -22 39 -68 29 -189 -12 -153 -14 -156 -113 -177 -45 -9 -100 -26 -122 -37
-80 -41 -268 -19 -288 34 -9 23 30 61 95 92 61 29 110 33 234 18 l67 -8 0 32
c0 36 -2 37 -34 16 -26 -17 -52 -11 -66 15 -12 23 15 59 76 101 43 29 55 51
33 64 -17 11 -119 -57 -153 -101 -23 -32 -44 -46 -83 -58 -56 -18 -128 -63
-211 -133 -64 -55 -81 -81 -55 -89 10 -3 53 -19 96 -35 43 -17 107 -33 143
-36 60 -5 64 -7 58 -27 -20 -65 -23 -68 -52 -62 -15 4 -49 9 -77 12 l-50 4 46
-13 c79 -23 107 -51 157 -156 49 -104 62 -172 42 -221 -13 -33 -18 -33 -86 -5
-31 13 -31 15 -36 91 -8 134 -47 184 -143 184 -52 0 -86 -26 -111 -85 -20 -49
-47 -46 -79 9 -14 24 -28 66 -31 92 -5 41 -2 54 17 78 19 24 27 28 60 23 33
-4 38 -2 44 20 3 14 4 27 2 30 -2 2 -24 -1 -47 -6 -78 -17 -127 -69 -134 -141
-3 -41 -7 -46 -43 -61 -89 -38 -128 -130 -102 -238 3 -10 -8 -17 -33 -21 -70
-13 -126 -64 -158 -148 -26 -68 -25 -101 3 -143 29 -44 135 -115 149 -101 18
18 0 59 -35 81 -77 47 -89 97 -42 178 27 45 57 64 129 80 51 11 64 32 48 76
-7 18 -12 55 -12 81 0 39 5 53 29 77 35 34 68 37 105 8 35 -28 33 -42 -10 -62
-55 -27 -34 -41 49 -32 53 5 72 3 78 -7 12 -19 11 -160 -2 -235 -6 -35 -8 -80
-4 -100 9 -48 52 -89 109 -104 25 -6 50 -17 53 -23 4 -6 8 -56 9 -111 0 -83 6
-117 32 -199 35 -107 39 -159 18 -209 -28 -69 -128 -127 -182 -107 -13 5 -24
12 -24 16 0 3 15 24 34 47 76 94 83 151 40 336 -29 124 -30 125 -127 198 -69
52 -85 76 -107 159 l-18 65 28 57 c58 115 49 134 -18 41 -41 -58 -74 -81 -135
-94 -32 -6 -47 -33 -26 -46 8 -5 31 -9 51 -9 39 0 68 -27 68 -63 0 -29 37 -92
70 -120 17 -15 62 -36 100 -47 78 -23 69 -8 110 -177 48 -194 14 -252 -195
-340 -108 -45 -120 -60 -112 -151 3 -37 9 -78 13 -91 l7 -24 -30 18 c-42 24
-78 83 -109 179 -34 104 -45 124 -94 181 -38 44 -40 48 -25 65 27 30 29 90 6
128 -38 60 -104 68 -137 17 -21 -32 -13 -41 25 -25 35 14 67 6 82 -21 14 -27
-13 -69 -44 -69 -33 0 -84 -35 -103 -71 -24 -48 -31 -141 -10 -158 27 -23 46
3 46 64 0 37 6 60 19 76 l19 24 27 -25 c53 -49 103 -140 134 -238 51 -163 130
-231 258 -219 89 8 264 43 307 61 21 9 40 16 42 16 2 0 6 -17 10 -37 8 -46 21
-64 40 -56 10 4 14 23 14 68 l0 62 87 65 c81 60 142 98 159 98 11 0 -6 -99
-27 -156 -55 -146 -175 -247 -464 -390 -187 -92 -237 -126 -201 -140 45 -17
317 101 471 204 162 109 250 222 281 359 19 88 15 162 -14 245 l-20 57 56 12
c30 6 74 19 96 29 40 17 74 46 64 55 -2 2 -37 9 -78 15 -103 15 -179 38 -218
67 -33 25 -96 104 -125 158 -9 17 -16 27 -17 23 -1 -19 66 -170 101 -231 23
-39 44 -89 49 -120 5 -28 12 -66 16 -84 6 -30 4 -33 -31 -47 -20 -9 -80 -48
-133 -87 -121 -90 -197 -125 -309 -143 -48 -8 -102 -18 -119 -21 -26 -6 -32
-3 -42 20 -18 40 -15 130 5 146 20 17 111 17 175 -1 41 -12 52 -11 94 5 58 22
118 75 147 129 34 65 30 165 -12 300 -31 100 -33 115 -27 195 8 107 0 121 -88
151 -80 26 -93 49 -77 136 14 74 14 161 0 238 -10 51 -9 67 4 98 20 48 56 72
89 59 48 -18 58 -48 44 -142 -4 -31 -5 -66 -2 -76 4 -11 31 -32 61 -47 76 -39
78 -42 59 -117 -35 -137 5 -271 108 -364 118 -107 254 -125 436 -60 37 13 112
35 167 49 55 14 120 32 145 41 142 51 241 66 465 74 215 7 221 8 275 35 71 37
159 105 203 157 47 54 55 103 28 157 -25 49 -66 75 -150 97 -131 34 -137 46
-145 310 -7 196 -7 201 16 244 34 65 67 86 138 86 49 -1 72 -8 138 -42 44 -23
83 -39 86 -36 3 4 6 19 6 35 0 73 106 106 185 58 38 -23 72 -82 81 -138 5 -35
11 -43 33 -48 77 -15 112 -60 95 -123 l-11 -40 74 -69 c81 -77 111 -131 139
-247 30 -131 0 -242 -83 -297 -46 -30 -134 -65 -268 -107 -55 -18 -114 -42
-131 -54 -150 -107 -175 -116 -309 -117 l-80 0 100 49 c113 54 182 111 232
188 30 48 39 54 91 68 129 36 152 57 152 141 0 29 5 56 11 60 6 3 39 9 74 12
57 4 64 3 75 -17 16 -32 4 -57 -44 -90 -48 -33 -74 -61 -58 -61 20 0 117 41
134 57 33 30 41 77 24 137 l-16 55 -33 -19 c-18 -11 -65 -26 -105 -35 -102
-21 -112 -28 -112 -75 0 -46 -24 -76 -67 -85 -68 -15 -63 -19 -63 51 0 56 -5
73 -46 151 -26 48 -57 119 -70 157 -27 79 -39 96 -65 96 -14 0 -19 -7 -19 -26
0 -51 32 -150 76 -233 36 -69 44 -94 44 -137 0 -132 -82 -243 -233 -318 -155
-77 -191 -86 -407 -101 -285 -21 -446 -66 -543 -154 -41 -37 -97 -112 -97
-130 0 -22 43 -10 78 20 20 18 56 41 80 52 39 16 52 18 97 9 120 -24 207 -88
257 -189 56 -115 43 -229 -35 -287 -43 -31 -129 -29 -187 6 -64 38 -174 152
-167 172 17 43 73 26 156 -48 58 -51 85 -57 125 -25 81 64 64 169 -37 218 -46
22 -210 63 -202 50 3 -4 45 -29 93 -55 97 -53 142 -92 142 -123 0 -22 -32 -61
-50 -61 -6 0 -32 20 -58 44 -57 52 -72 60 -141 75 -40 9 -74 8 -139 -1 -84
-12 -87 -14 -137 -64 -29 -28 -104 -119 -169 -201 -193 -248 -331 -369 -548
-476 -270 -134 -460 -159 -623 -83 -67 31 -148 106 -175 162 -19 38 -20 49
-10 74 10 25 8 43 -19 132 -45 153 -54 217 -55 388 0 175 22 323 55 377 24 38
98 98 148 119 60 25 90 -8 130 -143 32 -107 44 -118 129 -118 39 0 74 4 78 8
4 4 2 29 -6 55 -23 83 -24 109 -3 120 19 10 85 -6 105 -26 25 -25 37 -166 18
-203 -6 -10 -34 -37 -61 -59 -28 -22 -48 -40 -44 -40 21 0 130 68 152 94 24
29 25 35 20 111 -6 110 -24 147 -78 169 -61 25 -135 32 -155 15 -13 -11 -15
-26 -9 -92 6 -62 4 -81 -6 -88 -39 -25 -61 0 -94 107 -53 172 -151 218 -274
126 l-34 -25 6 49 c23 198 249 648 454 907 274 344 653 608 1037 722 99 29
105 30 113 8z m839 -900 c-8 -67 -22 -93 -69 -122 -41 -25 -47 -48 -37 -139
10 -90 2 -102 -63 -102 -34 0 -70 -9 -102 -24 -57 -27 -145 -115 -200 -201
-46 -72 -52 -65 -68 76 -14 125 1 226 39 277 27 35 82 65 149 82 23 5 68 29
100 53 33 24 86 54 117 66 31 13 74 38 95 56 21 19 40 34 42 35 2 0 1 -26 -3
-57z m-1325 -83 c25 0 24 -19 -4 -53 l-22 -28 -11 46 c-9 38 -8 45 4 40 7 -3
22 -5 33 -5z m489 -10 c24 -24 26 -71 6 -167 -24 -114 -29 -207 -16 -282 19
-113 -17 -177 -130 -230 -75 -35 -191 -36 -266 -3 -132 59 -193 207 -149 358
19 66 86 204 122 251 31 40 92 70 161 79 52 7 54 6 82 -27 l29 -34 11 32 c12
33 25 39 93 42 25 1 43 -5 57 -19z m868 -103 c36 -64 59 -81 150 -106 185 -51
226 -121 96 -166 -51 -17 -88 -3 -109 41 -9 19 -18 34 -20 34 -2 0 -26 -5 -54
-11 -38 -8 -56 -18 -75 -44 -30 -39 -61 -52 -81 -35 -17 14 -20 56 -5 65 15 9
12 85 -5 141 -8 27 -15 60 -15 73 0 33 27 61 61 61 22 0 32 -9 57 -53z m-154
-233 c11 -4 16 -19 16 -44 0 -39 13 -52 47 -45 70 14 73 16 87 50 14 31 19 35
54 35 39 0 58 -13 80 -56 17 -32 -6 -66 -67 -96 -54 -28 -55 -28 -255 -26
-111 0 -211 -2 -223 -6 -32 -10 -29 5 13 56 73 89 122 119 226 137 3 0 13 -2
22 -5z m-645 -295 c-24 -15 -29 -10 -17 16 10 23 13 24 21 9 6 -11 5 -19 -4
-25z m841 -184 c100 -50 154 -130 153 -227 -2 -133 -136 -253 -300 -266 l-64
-5 25 38 c69 101 57 260 -23 313 l-23 15 9 -39 c15 -71 5 -184 -16 -184 -4 0
-11 20 -14 45 -15 106 -93 198 -220 260 l-70 33 55 11 c164 34 426 38 488 6z
m-1264 -147 c46 -20 48 -22 24 -29 -69 -20 -112 -4 -96 36 7 20 14 19 72 -7z
m394 -262 c0 -2 -7 -7 -16 -10 -8 -3 -12 -2 -9 4 6 10 25 14 25 6z m0 -111 c0
-11 -61 -157 -105 -250 -29 -62 -47 -113 -46 -135 0 -19 1 -55 2 -80 3 -63
-63 -209 -86 -190 -20 17 -19 42 9 130 26 83 44 236 27 225 -6 -3 -24 -26 -41
-50 -51 -74 -274 -217 -560 -360 -106 -53 -190 -98 -188 -100 7 -8 134 24 223
55 114 41 247 104 353 169 102 63 98 47 -7 -21 -165 -109 -566 -288 -643 -288
-65 0 -108 37 -108 93 0 20 9 24 82 39 98 21 226 80 364 170 141 92 232 168
438 366 185 178 286 258 286 227z m139 -47 c20 -18 46 -40 58 -48 l23 -15 -51
-100 c-28 -55 -98 -185 -154 -290 -57 -104 -131 -242 -165 -305 -34 -63 -59
-107 -56 -98 3 9 16 50 29 90 105 314 109 329 96 389 -10 47 -10 48 80 228 50
100 94 181 97 181 4 0 23 -15 43 -32z"/>
<path d="M2825 4120 c-3 -5 -23 -10 -43 -10 l-36 0 31 -32 c18 -18 41 -58 53
-90 11 -31 36 -76 55 -101 19 -25 35 -52 35 -60 0 -8 -23 -20 -57 -30 -96 -26
-176 -114 -160 -174 3 -11 5 -8 6 9 3 65 86 119 211 134 30 4 58 12 62 18 20
29 7 75 -39 137 -60 82 -78 139 -58 180 l16 29 -35 0 c-19 0 -38 -4 -41 -10z"/>
<path d="M3388 3935 c-29 -25 -65 -56 -80 -69 -24 -20 -28 -31 -28 -75 0 -52
19 -113 38 -125 7 -4 9 12 5 48 -5 46 -2 57 16 75 28 28 69 27 154 -3 60 -22
68 -22 65 -8 -2 9 -29 30 -60 45 -31 16 -59 36 -63 45 -8 20 36 62 65 62 28 0
36 21 15 37 -35 25 -71 16 -127 -32z m-1 -71 c5 -15 -20 -24 -37 -14 -7 4 -9
13 -5 19 8 14 37 11 42 -5z"/>
<path d="M3530 3914 c1 -27 70 -74 109 -74 26 0 34 -15 21 -40 -15 -29 5 -26
42 5 16 14 36 25 44 25 9 0 12 5 9 10 -13 20 -69 42 -133 51 -36 5 -71 14 -79
20 -7 6 -13 8 -13 3z"/>
<path d="M4189 2490 c-106 -35 -224 -88 -216 -96 9 -9 116 13 208 42 78 25
134 58 124 75 -9 13 -21 11 -116 -21z"/>
<path d="M1791 3614 c-19 -8 -32 -16 -30 -19 9 -8 90 8 86 18 -5 17 -20 17
-56 1z"/>
<path d="M3843 3514 c-18 -28 -19 -20 20 -156 22 -77 -40 -77 -97 0 -31 43
-46 53 -147 96 -61 26 -119 46 -128 44 -14 -3 -17 -28 -22 -183 -4 -113 -3
-185 4 -192 5 -7 21 -13 35 -13 24 0 25 0 18 68 -7 71 9 251 23 265 5 5 23 6
41 2 23 -5 47 -27 93 -83 113 -140 120 -142 242 -91 102 43 107 51 45 77 -64
27 -90 67 -90 140 0 58 -11 65 -37 26z"/>
<path d="M3985 3169 c-87 -30 -115 -55 -115 -101 0 -30 37 -94 48 -83 3 3 7
25 8 48 3 50 30 77 78 77 39 0 56 -15 56 -52 0 -33 19 -37 45 -8 17 19 17 22
-5 80 -12 33 -25 62 -29 63 -3 2 -42 -9 -86 -24z"/>
<path d="M973 1945 c-3 -9 -29 -31 -59 -50 -96 -62 -108 -137 -39 -241 30 -47
36 -62 31 -92 -7 -49 13 -103 44 -119 33 -17 164 -17 177 0 10 12 43 104 43
119 0 22 -40 3 -69 -33 -31 -38 -35 -40 -79 -37 -41 3 -47 6 -50 26 -2 13 8
41 22 63 14 21 26 45 26 53 0 17 -27 29 -35 16 -4 -6 -13 -10 -21 -10 -20 0
-78 123 -70 148 4 10 27 34 52 52 54 38 87 96 64 110 -21 14 -30 12 -37 -5z"/>
<path d="M1447 1580 c-67 -12 -94 -32 -107 -82 -6 -24 -14 -54 -18 -67 -11
-36 -72 -63 -158 -69 -59 -4 -72 -7 -64 -17 20 -24 106 -38 156 -26 86 22 124
65 124 140 0 31 6 44 26 60 44 35 154 40 154 7 0 -6 -19 -22 -42 -33 -42 -22
-43 -22 -13 -22 83 -2 129 33 105 79 -20 38 -65 46 -163 30z"/>
<path d="M2895 2934 c-69 -36 -87 -71 -56 -110 l21 -27 -6 29 c-7 36 22 76 74
104 27 14 32 19 17 19 -11 1 -33 -6 -50 -15z"/>
<path d="M2130 2997 c-17 -8 -44 -49 -83 -126 -86 -165 -80 -226 23 -278 104
-54 240 -14 240 70 0 42 -18 66 -80 111 -43 31 -50 33 -50 17 0 -11 16 -38 35
-61 19 -23 35 -48 35 -55 0 -26 -29 -38 -81 -33 -40 4 -58 12 -82 36 -31 31
-31 32 -19 79 7 25 30 78 50 117 33 64 40 71 70 74 27 3 40 -4 74 -38 47 -47
93 -74 109 -64 6 3 -3 14 -20 25 -21 12 -31 27 -31 43 0 69 -116 120 -190 83z"/>
<path d="M3178 2240 c34 -23 84 -67 110 -97 79 -93 90 -103 117 -103 29 0 31
7 9 40 -60 90 -179 177 -264 195 -32 6 -30 3 28 -35z"/>
</g>
</svg>